<svg xmlns="http://www.w3.org/2000/svg" viewBox="0 0 480 480">
	<circle cx="240" cy="240" r="216" fill="#d7dbe0" />
	<circle cx="240" cy="240" r="176" fill="#fff" />
	<path
		d="M72 248H40c-4.422 0-8-3.578-8-8s3.578-8 8-8h32c4.422 0 8 3.578 8 8s-3.578 8-8 8zM440 248h-32c-4.422 0-8-3.578-8-8s3.578-8 8-8h32c4.422 0 8 3.578 8 8s-3.578 8-8 8zM240 448c-4.422 0-8-3.578-8-8v-32c0-4.422 3.578-8 8-8s8 3.578 8 8v32c0 4.422-3.578 8-8 8zM240 80c-4.422 0-8-3.578-8-8V40c0-4.422 3.578-8 8-8s8 3.578 8 8v32c0 4.422-3.578 8-8 8z"
		fill="#5c546a" />
	<path
		d="M413.195 348a7.962 7.962 0 01-3.992-1.07l-20.781-12a8 8 0 01-2.93-10.93c2.211-3.836 7.109-5.148 10.93-2.93l20.781 12a8 8 0 01-4.008 14.93zM87.57 160a7.962 7.962 0 01-3.992-1.07l-20.781-12a8 8 0 01-2.93-10.93 7.994 7.994 0 0110.93-2.93l20.781 12A8 8 0 0187.57 160zM66.805 348a8 8 0 01-4.008-14.93l20.781-12c3.813-2.219 8.719-.906 10.93 2.93a8 8 0 01-2.93 10.93l-20.781 12a7.962 7.962 0 01-3.992 1.07zM392.43 160a8 8 0 01-4.008-14.93l20.781-12c3.813-2.211 8.711-.906 10.93 2.93a8 8 0 01-2.93 10.93l-20.781 12a7.962 7.962 0 01-3.992 1.07zM327.992 95.578a8 8 0 01-6.922-12l12-20.781c2.219-3.836 7.102-5.148 10.93-2.93a8 8 0 012.93 10.93l-12 20.781a7.994 7.994 0 01-6.938 4zM139.992 421.203a8 8 0 01-6.922-12l12-20.781c2.211-3.836 7.109-5.148 10.93-2.93a8 8 0 012.93 10.93l-12 20.781a7.994 7.994 0 01-6.938 4zM340.008 421.203a7.994 7.994 0 01-6.938-4l-12-20.781a8 8 0 012.93-10.93c3.813-2.219 8.711-.906 10.93 2.93l12 20.781a8 8 0 01-6.922 12zM152.008 95.578a7.994 7.994 0 01-6.938-4l-12-20.781a8 8 0 012.93-10.93c3.813-2.219 8.711-.906 10.93 2.93l12 20.781a8 8 0 01-6.922 12z"
		fill="#8a8895" />
	<path
		d="M336 260h-4v-84c0-6.617-5.383-12-12-12s-12 5.383-12 12v84h-42l33.07-79.383a11.86 11.86 0 00.023-9.188 11.916 11.916 0 00-6.477-6.508c-6.094-2.547-13.133.367-15.695 6.461l-39.992 96a11.947 11.947 0 001.086 11.273A11.984 11.984 0 00248 284h60v20c0 6.617 5.383 12 12 12s12-5.383 12-12v-20h4c6.617 0 12-5.383 12-12s-5.383-12-12-12z"
		fill="#ff4f19" />
	<path
		d="M187.68 273.094C208.07 263.961 236 251.453 236 216c0-28.672-23.328-52-52-52s-52 23.328-52 52c0 6.617 5.383 12 12 12s12-5.383 12-12c0-15.438 12.563-28 28-28s28 12.563 28 28c0 19.898-15.063 26.648-34.133 35.195C157.43 260.352 132 271.742 132 304c0 6.617 5.383 12 12 12h80c6.617 0 12-5.383 12-12s-5.383-12-12-12h-64.863c4.375-7.229 13.521-12.176 28.543-18.906z"
		fill="#ff4f19" />
	<path
		d="M240 0C107.452 0 0 107.452 0 240s107.452 240 240 240 240-107.452 240-240S372.548 0 240 0zm0 440c-110.457 0-200-89.543-200-200S129.543 40 240 40s200 89.543 200 200-89.543 200-200 200z"
		fill="#ff4f19" />
	<g>
		<path
			d="M40 240c0-110.457 89.543-200 200-200V0C107.452 0 0 107.452 0 240s107.452 240 240 240v-40c-110.457 0-200-89.543-200-200z"
			fill="#e7001e" />
	</g>
</svg>