<svg xmlns="http://www.w3.org/2000/svg" viewBox="0 0 512 512">
	<g fill="#f4dbc3">
		<ellipse cx="154.154" cy="266.533" rx="35.292" ry="35.171" />
		<ellipse cx="357.846" cy="266.533" rx="35.292" ry="35.171" />
	</g>
	<path
		d="M76.468 512c-6.61 0-11.969-5.339-11.969-11.928v-41.749c0-38.147 31.141-69.183 69.42-69.183h244.163c38.279 0 69.42 31.034 69.42 69.183v41.748c0 6.588-5.359 11.928-11.969 11.928H76.468V512z"
		fill="gray" />
	<path
		d="M109.406 500.072v-41.749c0-38.147 31.141-69.183 69.42-69.183h-44.908c-38.279 0-69.42 31.034-69.42 69.183v41.748c0 6.588 5.359 11.928 11.969 11.928h44.908c-6.61.001-11.969-5.338-11.969-11.927z"
		opacity=".1" />
	<g fill="#ef645e">
		<circle cx="256" cy="451.103" r="13.473" />
		<path
			d="M269.474 503.916c0-7.442-6.032-13.474-13.474-13.474s-13.474 6.032-13.474 13.474c0 3.038 1.018 5.831 2.713 8.084h21.522a13.403 13.403 0 002.713-8.084z" />
	</g>
	<path d="M301.81 512v-85.693a8.085 8.085 0 00-16.168 0V512h16.168z" fill="#666" />
	<path
		d="M348.943 372.694c0 13.834-11.254 25.049-25.136 25.049H188.193c-13.883 0-25.136-11.215-25.136-25.049s11.255-25.05 25.136-25.05h135.613c13.883 0 25.137 11.216 25.137 25.05z"
		fill="#ef645e" />
	<path
		d="M185.45 372.694c0-13.834 11.254-25.05 25.136-25.05h-22.392c-13.883 0-25.136 11.215-25.136 25.05 0 13.834 11.255 25.049 25.136 25.049h22.392c-13.883.001-25.136-11.215-25.136-25.049z"
		opacity=".1" />
	<g fill="#d84e4e">
		<path
			d="M303.812 389.96c16.751 16.692 23.93 36.603 16.037 44.47-7.895 7.866-27.873.713-44.623-15.982-16.75-16.694-23.93-36.603-16.037-44.471 7.895-7.867 27.874-.71 44.623 15.983z" />
		<path
			d="M236.774 418.448c-16.751 16.694-36.728 23.848-44.623 15.982-7.894-7.867-.715-27.777 16.036-44.47 16.751-16.694 36.728-23.85 44.623-15.983 7.894 7.868.714 27.777-16.036 44.471z" />
	</g>
	<g fill="#ba3c3c">
		<path
			d="M288.473 411.245a8.058 8.058 0 01-5.706-2.358l-29.284-29.183a8.083 8.083 0 01-.02-11.432 8.082 8.082 0 0111.432-.02l29.284 29.183a8.083 8.083 0 01.02 11.432 8.055 8.055 0 01-5.726 2.378z" />
		<path
			d="M223.527 411.245a8.057 8.057 0 01-5.726-2.378 8.083 8.083 0 01.02-11.432l29.283-29.183a8.083 8.083 0 0111.432.02 8.083 8.083 0 01-.02 11.432l-29.283 29.183a8.062 8.062 0 01-5.706 2.358z" />
	</g>
	<path
		d="M369.986 277.293c0 54.694-56.766 99.033-111.647 99.033h-4.677c-54.881 0-111.647-44.339-111.647-99.033v-67.576c0-54.694 44.49-99.032 99.372-99.032h29.228c54.882 0 99.372 44.338 99.372 99.032v67.576z"
		fill="#ffe7cc" />
	<path
		d="M164.379 277.293v-67.576c0-54.694 44.49-99.032 99.372-99.032h-22.365c-54.882 0-99.372 44.338-99.372 99.032v67.576c0 54.694 56.766 99.033 111.647 99.033h4.677c2.923 0 5.849-.143 8.774-.392-51.942-4.444-102.733-46.905-102.733-98.641z"
		opacity=".1" />
	<path
		d="M369.986 251.15v-41.432c0-54.694-44.49-99.032-99.372-99.032h-10.838v41.432c0 54.694 44.49 99.032 99.372 99.032h10.838z"
		fill="#af865d" />
	<path
		d="M323.907 152.117V126.12c-15.401-9.772-33.683-15.435-53.293-15.435h-29.228c-54.882 0-99.372 44.338-99.372 99.032v25.997c15.401 9.772 33.683 15.435 53.294 15.435h29.227c54.882.001 99.372-44.338 99.372-99.032z"
		fill="#c69c6d" />
	<g fill="#534741">
		<path
			d="M208.067 301.169a8.084 8.084 0 01-8.084-8.084v-10.677a8.085 8.085 0 0116.168 0v10.677a8.083 8.083 0 01-8.084 8.084zM303.933 301.169a8.084 8.084 0 01-8.084-8.084v-10.677a8.085 8.085 0 0116.168 0v10.677a8.084 8.084 0 01-8.084 8.084z" />
	</g>
	<path
		d="M256.001 340.028c-.001 0 0 0 0 0-9.172 0-17.796-3.571-24.281-10.057a8.083 8.083 0 1111.432-11.432c3.432 3.431 7.995 5.322 12.848 5.322s9.416-1.89 12.848-5.322a8.082 8.082 0 0111.432 0 8.083 8.083 0 010 11.432c-6.484 6.484-15.108 10.057-24.279 10.057z"
		fill="#c4a486" />
	<path
		d="M404.474 75.731c0-25.095-20.413-45.438-45.594-45.438a45.569 45.569 0 00-17.851 3.617C335.908 14.399 318.101 0 296.918 0c-17.501 0-32.691 9.832-40.334 24.251C248.943 9.832 233.752 0 216.251 0c-21.354 0-39.272 14.633-44.228 34.383a45.532 45.532 0 00-18.902-4.091c-25.181 0-45.594 20.343-45.594 45.438 0 21.277 14.676 39.131 34.488 44.075v91.545h227.972v-91.545c19.811-4.943 34.487-22.797 34.487-44.074z"
		fill="gray" />
	<path
		d="M141.216 75.731c0-19.161 11.908-35.541 28.746-42.22a45.517 45.517 0 00-16.842-3.218c-25.181 0-45.594 20.343-45.594 45.438 0 21.277 14.676 39.131 34.488 44.075v91.545h33.69v-91.545c-19.813-4.944-34.488-22.798-34.488-44.075z"
		opacity=".1" />
	<g fill="#999">
		<path
			d="M210.729 198.333a8.084 8.084 0 01-8.084-8.084v-33.721a8.084 8.084 0 0116.168 0v33.721a8.084 8.084 0 01-8.084 8.084zM256 198.333a8.084 8.084 0 01-8.084-8.084v-33.721a8.084 8.084 0 0116.168 0v33.721a8.084 8.084 0 01-8.084 8.084zM301.271 198.333a8.084 8.084 0 01-8.084-8.084v-33.721a8.084 8.084 0 0116.168 0v33.721a8.083 8.083 0 01-8.084 8.084z" />
	</g>
	<path fill="#ef645e" d="M142.012 182.167h227.976v29.186H142.012z" />
	<path opacity=".1" d="M142.012 182.167H175.7v29.186h-33.688z" />
</svg>