<svg viewBox="0 0 24 24" xmlns="http://www.w3.org/2000/svg">
	<path
		d="M11 3H4a2.997 2.997 0 00-3 3v14a2.997 2.997 0 003 3h14a2.997 2.997 0 003-3v-7a1 1 0 00-2 0v7c0 .276-.111.525-.293.707S18.276 21 18 21H4c-.276 0-.525-.111-.707-.293S3 20.276 3 20V6c0-.276.111-.525.293-.707S3.724 5 4 5h7a1 1 0 000-2zm6.793-1.207l-9.5 9.5a.992.992 0 00-.263.465l-1 4a1 1 0 001.213 1.213l4-1c.167-.041.33-.129.465-.263l9.5-9.5c.609-.609.914-1.41.914-2.207s-.305-1.598-.914-2.207a3.119 3.119 0 00-4.415-.001zm1.414 1.414c.219-.219.504-.328.793-.328s.574.109.793.328.328.504.328.793-.109.574-.328.793l-9.304 9.304-2.114.529.529-2.114z" />
</svg>