<svg viewBox="0 0 21 21" fill="none" xmlns="http://www.w3.org/2000/svg">
  <circle cx="10" cy="10" r="10" fill="#F54748" />
  <path
    d="M16.661 7.46a4.03 4.03 0 00-.922-1.285 4.305 4.305 0 00-1.361-.86A4.469 4.469 0 0012.718 5c-.799 0-1.578.21-2.255.605a4.23 4.23 0 00-.462.311 4.23 4.23 0 00-.462-.311A4.476 4.476 0 007.283 5a4.47 4.47 0 00-1.66.315 4.296 4.296 0 00-1.36.86A4.007 4.007 0 003.34 7.46C3.115 7.96 3 8.492 3 9.04c0 .516.11 1.055.329 1.602.183.457.446.932.781 1.41.532.76 1.262 1.55 2.17 2.351a24.17 24.17 0 003.056 2.284l.384.236a.54.54 0 00.56 0l.384-.236c.063-.038 1.55-.955 3.056-2.284.907-.801 1.638-1.592 2.17-2.35.335-.48.6-.954.781-1.411A4.318 4.318 0 0017 9.039a3.803 3.803 0 00-.339-1.58z"
    fill="#FDC55E" />
</svg>