<svg width="18" height="19" viewBox="0 0 18 19" fill="none" xmlns="http://www.w3.org/2000/svg">
<path d="M8.923 4.99105C8.01835 4.99105 7.13401 5.2593 6.38182 5.7619C5.62963 6.2645 5.04337 6.97886 4.69718 7.81465C4.35098 8.65044 4.2604 9.57012 4.43689 10.4574C4.61338 11.3447 5.04901 12.1597 5.68869 12.7993C6.32838 13.439 7.14339 13.8747 8.03066 14.0512C8.91793 14.2276 9.8376 14.1371 10.6734 13.7909C11.5092 13.4447 12.2235 12.8584 12.7261 12.1062C13.2287 11.354 13.497 10.4697 13.497 9.56504C13.4981 8.96408 13.3805 8.36882 13.151 7.8134C12.9215 7.25798 12.5846 6.75333 12.1597 6.32839C11.7347 5.90344 11.2301 5.56656 10.6746 5.33707C10.1192 5.10758 9.52396 4.98999 8.923 4.99105ZM8.923 12.538C8.335 12.538 7.7602 12.3637 7.27129 12.037C6.78238 11.7103 6.40133 11.246 6.17631 10.7028C5.95129 10.1595 5.89241 9.56175 6.00713 8.98504C6.12184 8.40834 6.40499 7.8786 6.82077 7.46282C7.23655 7.04704 7.76629 6.76388 8.343 6.64917C8.9197 6.53445 9.51747 6.59333 10.0607 6.81835C10.604 7.04337 11.0683 7.42443 11.395 7.91333C11.7216 8.40224 11.896 8.97704 11.896 9.56504C11.8944 10.353 11.5807 11.1083 11.0235 11.6655C10.4663 12.2227 9.711 12.5365 8.923 12.538ZM14.75 4.80405C14.75 5.01508 14.6874 5.22137 14.5702 5.39684C14.4529 5.5723 14.2863 5.70907 14.0913 5.78982C13.8964 5.87058 13.6818 5.89171 13.4748 5.85054C13.2679 5.80937 13.0777 5.70775 12.9285 5.55853C12.7793 5.4093 12.6777 5.21918 12.6365 5.01221C12.5953 4.80523 12.6165 4.59069 12.6972 4.39572C12.778 4.20075 12.9147 4.03411 13.0902 3.91686C13.2657 3.79962 13.472 3.73704 13.683 3.73704C13.8233 3.73652 13.9623 3.76375 14.0921 3.81717C14.2218 3.87059 14.3397 3.94915 14.439 4.04832C14.5383 4.1475 14.6169 4.26532 14.6705 4.39502C14.724 4.52472 14.7514 4.66373 14.751 4.80405H14.75ZM17.775 5.88605C17.8045 4.49911 17.2868 3.1563 16.334 2.14804C15.3237 1.19845 13.9823 0.681328 12.596 0.707043C11.123 0.623043 6.709 0.623043 5.236 0.707043C3.85013 0.679395 2.50847 1.19517 1.498 2.14405C0.549305 3.15448 0.034171 4.49634 0.063 5.88204C-0.021 7.35504 -0.021 11.769 0.063 13.242C0.0335268 14.629 0.551177 15.9718 1.504 16.98C2.51461 17.9284 3.85534 18.445 5.241 18.42C6.714 18.504 11.128 18.504 12.601 18.42C13.9879 18.4495 15.3307 17.9319 16.339 16.979C17.2865 15.9682 17.8018 14.6273 17.775 13.242C17.863 11.769 17.863 7.35905 17.775 5.88605ZM15.875 14.82C15.7237 15.205 15.4946 15.5546 15.2021 15.8471C14.9096 16.1396 14.56 16.3687 14.175 16.52C13.001 16.986 10.214 16.878 8.917 16.878C7.62 16.878 4.829 16.978 3.659 16.52C3.27403 16.3687 2.9244 16.1396 2.6319 15.8471C2.33941 15.5546 2.11034 15.205 1.959 14.82C1.493 13.646 1.601 10.859 1.601 9.56204C1.601 8.26504 1.501 5.47404 1.959 4.30404C2.11034 3.91908 2.33941 3.56944 2.6319 3.27695C2.9244 2.98445 3.27403 2.75539 3.659 2.60404C4.833 2.13804 7.62 2.24604 8.917 2.24604C10.214 2.24604 13.005 2.14604 14.175 2.60404C14.56 2.75539 14.9096 2.98445 15.2021 3.27695C15.4946 3.56944 15.7237 3.91908 15.875 4.30404C16.341 5.47804 16.233 8.26504 16.233 9.56204C16.233 10.859 16.343 13.652 15.875 14.82Z" fill="#FDC55E"/>
</svg>
