<svg xmlns="http://www.w3.org/2000/svg" viewBox="0 0 512 512">
	<path
		d="M138.418 273.859h-15.741v-9.774h7.132a8.084 8.084 0 000-16.168h-7.132v-9.775h15.741v-.001a8.084 8.084 0 008.084-8.084 8.084 8.084 0 00-8.084-8.084h-23.825a8.084 8.084 0 00-8.084 8.084v51.888a8.084 8.084 0 008.084 8.084h23.825a8.085 8.085 0 000-16.17zM175.806 247.916a4.892 4.892 0 01-4.887-4.888 4.892 4.892 0 014.887-4.888h12.972a8.084 8.084 0 008.084-8.084 8.083 8.083 0 00-8.084-8.084h-12.972c-11.61 0-21.056 9.446-21.056 21.057 0 11.611 9.446 21.057 21.056 21.057a4.892 4.892 0 014.888 4.887 4.893 4.893 0 01-4.888 4.888h-12.971a8.084 8.084 0 000 16.168h12.971c11.61 0 21.057-9.446 21.057-21.057 0-11.611-9.447-21.056-21.057-21.056zM239.72 273.859h-15.74v-9.774h7.132a8.084 8.084 0 000-16.168h-7.132v-9.775h15.74v-.001a8.084 8.084 0 008.084-8.084 8.083 8.083 0 00-8.084-8.084h-23.825a8.084 8.084 0 00-8.084 8.084v51.888a8.083 8.083 0 008.084 8.084h23.825a8.085 8.085 0 000-16.17zM401.343 273.859h-15.74v-9.774h7.133c4.466 0 8.084-3.62 8.084-8.084s-3.618-8.084-8.084-8.084h-7.133v-9.775h15.74v-.001a8.084 8.084 0 008.084-8.084 8.083 8.083 0 00-8.084-8.084h-23.825a8.084 8.084 0 00-8.084 8.084v51.888a8.083 8.083 0 008.084 8.084h23.825a8.085 8.085 0 000-16.17zM81.35 263.232c6.355-3.934 10.611-10.949 10.611-18.957 0-12.299-10.005-22.304-22.303-22.304H53.443a8.084 8.084 0 00-8.084 8.084v51.888a8.083 8.083 0 008.084 8.084 8.084 8.084 0 008.084-8.084v-15.364h3.281l10.23 19.172a8.082 8.082 0 0010.938 3.325 8.084 8.084 0 003.326-10.938l-7.952-14.906zM69.658 250.41h-8.131v-12.271h8.131a6.14 6.14 0 016.134 6.135 6.142 6.142 0 01-6.134 6.136zM294.744 263.232c6.354-3.934 10.611-10.949 10.611-18.957 0-12.299-10.005-22.304-22.303-22.304h-16.215a8.084 8.084 0 00-8.084 8.084v51.888a8.084 8.084 0 008.084 8.084 8.084 8.084 0 008.084-8.084v-15.364h3.281l10.23 19.172a8.083 8.083 0 0010.939 3.325 8.084 8.084 0 003.326-10.938l-7.953-14.906zm-11.693-12.822h-8.131v-12.271h8.131a6.14 6.14 0 016.134 6.135 6.14 6.14 0 01-6.134 6.136zM359.094 222.493a8.087 8.087 0 00-10.42 4.705l-12.049 31.88-12.05-31.88a8.085 8.085 0 00-15.124 5.716l19.611 51.888a8.086 8.086 0 0015.126-.001l19.61-51.888a8.083 8.083 0 00-4.704-10.42zM434.733 221.97h-6.435v.001a8.084 8.084 0 00-8.084 8.084v51.888a8.083 8.083 0 008.084 8.084h6.435c17.594 0 31.909-14.314 31.909-31.909v-4.239c0-17.595-14.313-31.909-31.909-31.909zm15.74 36.149c0 8.122-6.183 14.828-14.09 15.654v-35.548c7.907.827 14.09 7.532 14.09 15.654v4.24z" />
	<path
		d="M500.465 199.728l-2.414-29.541a8.083 8.083 0 00-8.057-7.426H22.005a8.084 8.084 0 00-8.057 7.426L.027 340.495a8.083 8.083 0 008.058 8.742h48.509a8.085 8.085 0 000-16.168H16.855l12.6-154.139h453.089l1.809 22.115c.364 4.45 4.253 7.769 8.716 7.399a8.082 8.082 0 007.396-8.716z" />
	<path
		d="M511.973 340.494l-9.575-117.122c-.363-4.45-4.267-7.761-8.716-7.399a8.083 8.083 0 00-7.398 8.716l8.86 108.38H83.54c-4.466 0-8.084 3.62-8.084 8.084s3.618 8.084 8.084 8.084h420.377a8.083 8.083 0 008.056-8.743z" />
</svg>