<svg xmlns="http://www.w3.org/2000/svg" viewBox="0 0 512 512">
	<path
		d="M358.584 512H153.416c-21.864-.064-39.568-17.768-39.632-39.632V39.632C113.848 17.768 131.552.064 153.416 0h205.168c21.864.064 39.568 17.768 39.632 39.632v432.736c-.072 21.856-17.776 39.56-39.632 39.632z" />
	<path fill="#fff" d="M132.544 40.4h246.912v403.76H132.544z" />
	<g fill="#ccc">
		<path
			d="M293.032 24.424h-50.528a4.138 4.138 0 01-4.128-4.128 4.138 4.138 0 014.128-4.128h50.528a4.138 4.138 0 014.128 4.128 4.138 4.138 0 01-4.128 4.128z" />
		<circle cx="218.968" cy="20.296" r="4.128" />
		<path
			d="M256 497.568c-10.784 0-19.52-8.736-19.52-19.52s8.736-19.52 19.52-19.52c10.784 0 19.52 8.736 19.52 19.52-.016 10.776-8.744 19.504-19.52 19.52zm0-35.048c-8.568 0-15.52 6.952-15.52 15.52s6.952 15.52 15.52 15.52 15.52-6.952 15.52-15.52c-.008-8.568-6.952-15.512-15.52-15.52z" />
	</g>
	<path fill="#F54748" d="M172.072 322.4h167.856v8H172.072z" />
	<g fill="#999">
		<path d="M172.072 354.08h167.856v8H172.072zM172.072 385.84h167.856v8H172.072z" />
	</g>
	<circle cx="298" cy="246.808" r="21.304" />
	<circle cx="298" cy="246.808" r="10.344" fill="#999" />
	<path d="M217.72 143.12l-13.992-41.392h-36.224V90.664h44.16l16.528 48.912z" />
	<circle cx="233.76" cy="246.808" r="21.304" />
	<path fill="#fff" d="M219.408 211.984l-23.088-74.152h142.504l-26.432 74.152z" />
	<g fill="#F54748">
		<path
			d="M333.152 141.832L309.6 207.984h-87.2l-20.6-66.152h131.352m11.344-8H190.88l25.6 82.152h98.72l29.28-82.152h.016z" />
		<path d="M330.032 162.904H294.4l-8.568 15.048h-35.28l3.336 10.416h65.864z" />
	</g>
	<circle cx="233.76" cy="246.808" r="10.344" fill="#999" />
</svg>