<svg xmlns="http://www.w3.org/2000/svg" viewBox="0 0 407.484 407.484" fill="red"><path d="M378.939 16.564H28.544C12.805 16.564 0 29.369 0 45.108v219.985c0 15.739 12.805 28.544 28.544 28.544h131.46l-7.197 33.431h-24.994a13.428 13.428 0 00-9.818 4.268l-34.512 37a13.424 13.424 0 009.818 22.583h220.885a.067.067 0 01.02 0c7.415 0 13.427-6.011 13.427-13.426 0-3.766-1.55-7.168-4.047-9.606l-34.094-36.551a13.426 13.426 0 00-9.818-4.268H254.68l-7.197-33.431h131.459c15.74 0 28.545-12.805 28.545-28.544V45.108c-.003-15.739-12.807-28.544-28.548-28.544zm-7.697 243.173h-335V50.465h335v209.272z"/></svg>