<svg width="21" height="17" viewBox="0 0 21 17" fill="none" xmlns="http://www.w3.org/2000/svg">
<path d="M18.285 4.4132C18.298 4.5942 18.298 4.7752 18.298 4.9562C18.3092 6.51994 18.0094 8.07031 17.4161 9.51719C16.8229 10.9641 15.9479 12.2786 14.8422 13.3844C13.7364 14.4901 12.4219 15.3651 10.975 15.9583C9.52812 16.5516 7.97775 16.8514 6.414 16.8402C4.14 16.8463 1.91267 16.1952 0 14.9652C0.335031 15.0022 0.67194 15.0196 1.009 15.0172C2.88915 15.0219 4.71606 14.3931 6.195 13.2322C5.32305 13.2161 4.47794 12.9279 3.7778 12.4079C3.07765 11.888 2.55748 11.1623 2.29 10.3322C2.551 10.3736 2.81474 10.3954 3.079 10.3972C3.45018 10.3963 3.81976 10.3486 4.179 10.2552C3.23306 10.0639 2.38256 9.55093 1.77203 8.8035C1.16151 8.05607 0.82864 7.12028 0.83 6.1552V6.1062C1.4088 6.42912 2.0557 6.61072 2.718 6.6362C1.83156 6.04493 1.20417 5.13767 0.963878 4.09958C0.723589 3.06149 0.888517 1.97083 1.425 1.0502C2.4741 2.3415 3.78289 3.3979 5.26649 4.1509C6.75009 4.9039 8.37539 5.33669 10.037 5.4212C9.97112 5.10644 9.93761 4.78577 9.937 4.4642C9.93905 3.62768 10.192 2.81101 10.6631 2.11977C11.1342 1.42854 11.8019 0.894508 12.5797 0.586732C13.3575 0.278956 14.2098 0.211586 15.0263 0.393327C15.8429 0.575067 16.5861 0.997565 17.16 1.6062C18.0954 1.42595 18.9924 1.08453 19.811 0.597195C19.4992 1.56169 18.8464 2.37943 17.975 2.8972C18.8044 2.80263 19.6151 2.58455 20.38 2.2502C19.8081 3.08292 19.0999 3.81317 18.285 4.4102V4.4132Z" fill="#FDC55E"/>
</svg>
